# xmcd
#
# Track frame offsets:
#	187
#	17412
#	37812
#	60237
#	81012
#	99012
#	124212
#	142737
#	161637
#	179637
#	196662
#	216087
#	231462
#	250812
#	271962
#	295287
#
# Disc length: 4216 seconds
#
# Revision: 1
# Processed by: cddbd v1.5.1PL0 Copyright (c) Steve Scherf et al.
# Submitted via: CDex 1.50Beta5
#
DISCID=d0107610
DTITLE=堀内孝雄 - 堀内孝雄,来生たかお,小椋佳,谷村新司II
DYEAR=1992
DGENRE=
TTITLE0=堀内孝雄/恋唄綴り
TTITLE1=堀内孝雄/冗談じゃねえ
TTITLE2=堀内孝雄/遠き日の少年
TTITLE3=堀内孝雄/さよならだけの人生に
TTITLE4=来生たかお/セカンドラブ
TTITLE5=来生たかお/シルエットロマンス
TTITLE6=来生たかお/はぐれそうな天使
TTITLE7=来生たかお/めざめ
TTITLE8=小椋佳/泣かせて
TTITLE9=小椋佳/揺れるまなざし
TTITLE10=小椋佳/流氷の街
TTITLE11=小椋佳/さらば青春
TTITLE12=谷村新司/22歳
TTITLE13=谷村新司/陽はまた昇る
TTITLE14=谷村新司/君を忘れない
TTITLE15=谷村新司/昴
EXTD=
EXTT0=
EXTT1=
EXTT2=
EXTT3=
EXTT4=
EXTT5=
EXTT6=
EXTT7=
EXTT8=
EXTT9=
EXTT10=
EXTT11=
EXTT12=
EXTT13=
EXTT14=
EXTT15=
PLAYORDER=
